<?xml version="1.0" encoding="UTF-8"?>
<svg width="320pt" height="320pt" version="1.0" viewBox="0 0 320 320" xmlns="http://www.w3.org/2000/svg">
  <g transform="translate(0 320) scale(.1 -.1)">
    <path d="m600 3150v-50h-100v-100h-100v-2600h100v-400h2200v400h100v2600h-100v100h-100v100h-2e3v-50zm2e3 -100v-50h100v-2600h-2200v2600h100v100h2e3v-50zm0-2850v-100h-2e3v200h2e3v-100z"/>
    <path d="m800 2850v-50h-100v-1400h100v-100h1600v100h100v1400h-100v100h-1600v-50zm1600-750v-700h-1600v1400h1600v-700z"/>
    <path d="m1e3 2450v-50h100v-100h-100v-100h100v100h100v-100h100v100h-100v100h100v100h-100v-100h-100v100h-100v-50z"/>
    <path d="m1800 2450v-50h100v-100h-100v-100h100v100h100v-100h100v100h-100v100h100v100h-100v-100h-100v100h-100v-50z"/>
    <path d="m1300 2050v-50h100v-100h200v100h100v100h-100v-100h-200v100h-100v-50z"/>
    <path d="m1300 1750v-50h-100v-100h100v100h500v-100h200v-100h100v100h-100v100h-200v100h-500v-50z"/>
    <path d="m1800 850v-50h600v100h-600v-50z"/>
    <path d="m700 750v-50h200v100h-200v-50z"/>
  </g>
  <g fill="#fff" stroke-width=".51037">
    <path transform="scale(.75)" d="m66.858 200.06v-173.27h13.27v-13.27h266.41v13.27h13.27v346.54h-292.95zm53.589 126.57v-6.89h-27.56v13.78h27.56zm199.55-13.27v-6.89h-80.128v13.78h80.128zm0-66.603v-6.6348h13.78v-186.79h-13.78v-13.78h-213.33v13.78h-13.78v186.79h13.78v13.27h213.33z"/>
    <path transform="scale(.75)" d="m106.67 146.48v-93.142h213.33v186.28h-213.33zm173.52 73.493v-6.89h-13.27v-13.27h-26.539v-13.27h-67.368v13.27h-13.27v13.78h13.78v-13.27h66.348v13.27h26.539v13.27h13.78zm-66.858-53.078v-6.89h13.78v-13.78h-13.78v13.78h-26.539v-13.78h-13.78v13.78h13.27v13.78h27.049zm-66.348-40.064v-6.6348h12.759v13.27h13.78v-13.78h-13.27v-12.759h13.27v-13.78h-13.78v13.27h-12.759v-13.27h-13.78v13.78h13.27v12.759h-13.27v13.78h13.78zm106.67 0v-6.6348h12.759v13.27h13.78v-13.78h-13.27v-12.759h13.27v-13.78h-13.78v13.27h-12.759v-13.27h-13.78v13.78h13.27v12.759h-13.27v13.78h13.78z"/>
    <path transform="scale(.75)" d="m80.128 400.13v-13.014h266.41v26.029h-266.41z"/>
  </g>
</svg>
